<?xml version="1.0" encoding="UTF-8" standalone="no"?>
<svg
   xmlns:dc="http://purl.org/dc/elements/1.1/"
   xmlns:cc="http://creativecommons.org/ns#"
   xmlns:rdf="http://www.w3.org/1999/02/22-rdf-syntax-ns#"
   xmlns:svg="http://www.w3.org/2000/svg"
   xmlns="http://www.w3.org/2000/svg"
   xmlns:xlink="http://www.w3.org/1999/xlink"
   xmlns:sodipodi="http://sodipodi.sourceforge.net/DTD/sodipodi-0.dtd"
   xmlns:inkscape="http://www.inkscape.org/namespaces/inkscape"
   width="82"
   height="60"
   viewBox="0 0 82 60"
   version="1.1"
   id="svg36"
   sodipodi:docname="s_form_and_map.svg"
   inkscape:version="0.92.5 (2060ec1f9f, 2020-04-08)">
  <metadata
     id="metadata40">
    <rdf:RDF>
      <cc:Work
         rdf:about="">
        <dc:format>image/svg+xml</dc:format>
        <dc:type
           rdf:resource="http://purl.org/dc/dcmitype/StillImage" />
        <dc:title></dc:title>
      </cc:Work>
    </rdf:RDF>
  </metadata>
  <sodipodi:namedview
     pagecolor="#ffffff"
     bordercolor="#666666"
     borderopacity="1"
     objecttolerance="10"
     gridtolerance="10"
     guidetolerance="10"
     inkscape:pageopacity="0"
     inkscape:pageshadow="2"
     inkscape:window-width="1680"
     inkscape:window-height="986"
     id="namedview38"
     showgrid="false"
     inkscape:zoom="3.9333333"
     inkscape:cx="41"
     inkscape:cy="30"
     inkscape:window-x="0"
     inkscape:window-y="27"
     inkscape:window-maximized="1"
     inkscape:current-layer="svg36" />
  <defs
     id="defs15">
    <linearGradient
       id="linearGradient-1"
       x1="0%"
       x2="100%"
       y1="23.231%"
       y2="76.769%">
      <stop
         offset="0%"
         stop-color="#00A09D"
         id="stop2" />
      <stop
         offset="100%"
         stop-color="#00E2FF"
         id="stop4" />
    </linearGradient>
    <path
       id="path-2"
       d="M10 6.5c0-.966-.342-1.791-1.025-2.475A3.372 3.372 0 0 0 6.5 3c-.966 0-1.791.342-2.475 1.025A3.372 3.372 0 0 0 3 6.5c0 .966.342 1.791 1.025 2.475A3.372 3.372 0 0 0 6.5 10c.966 0 1.791-.342 2.475-1.025A3.372 3.372 0 0 0 10 6.5zm3 .167c0 .946-.14 1.723-.419 2.33L7.96 19.076a1.566 1.566 0 0 1-.603.677 1.6 1.6 0 0 1-1.714 0 1.488 1.488 0 0 1-.59-.677L.419 8.997C.139 8.39 0 7.613 0 6.667c0-1.84.635-3.412 1.904-4.714C3.174.651 4.706 0 6.5 0s3.326.651 4.596 1.953S13 4.826 13 6.667z" />
    <filter
       id="filter-4"
       width="107.7%"
       height="110%"
       x="-3.8%"
       y="-2.5%"
       filterUnits="objectBoundingBox">
      <feOffset
         dy="1"
         in="SourceAlpha"
         result="shadowOffsetOuter1"
         id="feOffset8" />
      <feComposite
         in="shadowOffsetOuter1"
         in2="SourceAlpha"
         operator="out"
         result="shadowOffsetOuter1"
         id="feComposite10" />
      <feColorMatrix
         in="shadowOffsetOuter1"
         values="0 0 0 0 1   0 0 0 0 1   0 0 0 0 1  0 0 0 0.4 0"
         id="feColorMatrix12" />
    </filter>
    <path
       d="M19 21v4h-5v-4h5zm7 0v4h-5v-4h5zm-8 1h-3v2h3v-2zm7 0h-3v2h3v-2zm23-8v4H14v-4h34zm-1 1H15v2h32v-2zm1-8v4H14V7h34zm-1 1H15v2h32V8zm1-8v4H14V0h34zm-1 1H15v2h32V1z"
       id="path-1" />
    <filter
       filterUnits="objectBoundingBox"
       y="-2%"
       x="-1.5%"
       height="108%"
       width="102.9%"
       id="filter-2">
      <feOffset
         id="feOffset937"
         result="shadowOffsetOuter1"
         in="SourceAlpha"
         dy="1" />
      <feComposite
         id="feComposite939"
         result="shadowOffsetOuter1"
         operator="out"
         in2="SourceAlpha"
         in="shadowOffsetOuter1" />
      <feColorMatrix
         id="feColorMatrix941"
         values="0 0 0 0 1   0 0 0 0 1   0 0 0 0 1  0 0 0 0.292012675 0"
         in="shadowOffsetOuter1" />
    </filter>
    <path
       d="M10 21v2H2v-2h8zm0-7v2H2v-2h8zm0-7v2H3V7h7zm0-7v2H0V0h10z"
       id="path-3" />
    <filter
       filterUnits="objectBoundingBox"
       y="-2.2%"
       x="-5%"
       height="108.7%"
       width="110%"
       id="filter-4-3">
      <feOffset
         id="feOffset945"
         result="shadowOffsetOuter1"
         in="SourceAlpha"
         dy="1" />
      <feComposite
         id="feComposite947"
         result="shadowOffsetOuter1"
         operator="out"
         in2="SourceAlpha"
         in="shadowOffsetOuter1" />
      <feColorMatrix
         id="feColorMatrix949"
         values="0 0 0 0 1   0 0 0 0 1   0 0 0 0 1  0 0 0 0.0995137675 0"
         in="shadowOffsetOuter1" />
    </filter>
    <linearGradient
       y2="60.325784"
       y1="59.528294"
       x2="16.81211"
       x1="7.592566"
       id="linearGradient-5"
       gradientTransform="scale(1.8439089,0.54232614)"
       gradientUnits="userSpaceOnUse">
      <stop
         id="stop952"
         stop-color="#00A09D"
         offset="0%" />
      <stop
         id="stop954"
         stop-color="#00E2FF"
         offset="100%" />
    </linearGradient>
    <linearGradient
       inkscape:collect="always"
       xlink:href="#linearGradient-1"
       id="linearGradient1011"
       x1="0"
       y1="16.293821"
       x2="70.143296"
       y2="53.847134"
       gradientTransform="scale(1.1690355,0.85540605)"
       gradientUnits="userSpaceOnUse" />
    <linearGradient
       inkscape:collect="always"
       xlink:href="#linearGradient-1"
       id="linearGradient1013"
       x1="0"
       y1="16.293821"
       x2="70.143296"
       y2="53.847134"
       gradientTransform="scale(1.1690355,0.85540605)"
       gradientUnits="userSpaceOnUse" />
  </defs>
  <g
     id="g1066">
    <g
       class="s_google_map"
       id="g32"
       style="fill:none;fill-rule:evenodd">
      <g
         class="image_1"
         id="g19"
         style="opacity:0.4;fill:url(#linearGradient1013)">
        <path
           d="M 23.033,36.864 32.38,60 H 0 V 44.348 Z M 60.346,24.74 74.592,60 H 55.05 L 43.071,30.353 Z M 82,17.705 V 60 H 77.433 L 62.858,23.924 82,17.704 Z M 40.56,31.169 52.21,59.999 H 35.22 L 25.543,36.048 40.558,31.168 Z M 27.966,-0.001 39.57,28.722 0,41.579 V 0 H 27.966 Z M 50.35,0 59.356,22.293 42.082,27.906 30.807,0 Z M 82,0 V 14.935 L 61.868,21.475 53.191,0 Z"
           class="combined_shape"
           id="path17"
           style="fill:url(#linearGradient1011)"
           inkscape:connector-curvature="0" />
      </g>
      <g
         class="group"
         transform="translate(17,14)"
         id="g30">
        <mask
           id="mask-3"
           fill="#fff">
          <use
             xlink:href="#path-2"
             id="use21"
             x="0"
             y="0"
             width="100%"
             height="100%" />
        </mask>
        <g
           class="map_marker"
           id="g28">
          <use
             xlink:href="#path-2"
             id="use24"
             style="fill:#000000;filter:url(#filter-4)"
             x="0"
             y="0"
             width="100%"
             height="100%" />
          <use
             xlink:href="#path-2"
             id="use26"
             style="fill:#ffffff;fill-opacity:0.95"
             x="0"
             y="0"
             width="100%"
             height="100%" />
        </g>
      </g>
    </g>
    <rect
       y="30.253828"
       x="19.982155"
       height="29.745764"
       width="40.739262"
       id="rect1024"
       style="opacity:1;fill:#333333;fill-opacity:1;stroke:none;stroke-width:0.93602663;stroke-miterlimit:4;stroke-dasharray:none;stroke-dashoffset:0;stroke-opacity:0.29019608" />
    <g
       transform="matrix(0.49152542,0,0,0.49152542,19.982154,30.253828)"
       style="fill:none;fill-rule:evenodd"
       class="snippets_thumbs"
       id="g979">
      <g
         class="s_website_form"
         id="g977">
        <rect
           y="0"
           x="0"
           width="82"
           height="60"
           class="bg"
           id="rect959" />
        <g
           class="group"
           transform="translate(17,13)"
           id="g975">
          <g
             class="combined_shape"
             id="g965">
            <use
               height="100%"
               width="100%"
               y="0"
               x="0"
               style="fill:#000000;filter:url(#filter-2)"
               xlink:href="#path-1"
               id="use961" />
            <use
               height="100%"
               width="100%"
               y="0"
               x="0"
               style="fill:#ffffff;fill-opacity:0.77999998"
               xlink:href="#path-1"
               id="use963" />
          </g>
          <g
             class="combined_shape"
             id="g971">
            <use
               height="100%"
               width="100%"
               y="0"
               x="0"
               xlink:href="#path-3"
               id="use967"
               style="fill:#000000;filter:url(#filter-4-3)" />
            <use
               height="100%"
               width="100%"
               y="0"
               x="0"
               style="fill:#ffffff;fill-opacity:0.34800002"
               xlink:href="#path-3"
               id="use969" />
          </g>
          <rect
             style="fill:url(#linearGradient-5)"
             width="17"
             height="5"
             x="14"
             y="30"
             class="rectangle"
             id="rect973" />
        </g>
      </g>
    </g>
  </g>
</svg>
