<?xml version="1.0" encoding="UTF-8" standalone="no"?>
<!-- Created with Inkscape (http://www.inkscape.org/) -->

<svg
   xmlns:dc="http://purl.org/dc/elements/1.1/"
   xmlns:cc="http://creativecommons.org/ns#"
   xmlns:rdf="http://www.w3.org/1999/02/22-rdf-syntax-ns#"
   xmlns:svg="http://www.w3.org/2000/svg"
   xmlns="http://www.w3.org/2000/svg"
   xmlns:sodipodi="http://sodipodi.sourceforge.net/DTD/sodipodi-0.dtd"
   xmlns:inkscape="http://www.inkscape.org/namespaces/inkscape"
   width="80"
   height="80"
   viewBox="0 0 21.166666 21.166667"
   version="1.1"
   id="svg8"
   inkscape:version="0.92.5 (2060ec1f9f, 2020-04-08)"
   sodipodi:docname="icon.svg"
   inkscape:export-filename="/home/antoniofregoso/Desarrollo/Odoo/14/ux/website_animated/static/description/icon.png"
   inkscape:export-xdpi="94.567993"
   inkscape:export-ydpi="94.567993">
  <defs
     id="defs2" />
  <sodipodi:namedview
     id="base"
     pagecolor="#ffffff"
     bordercolor="#666666"
     borderopacity="1.0"
     inkscape:pageopacity="0.0"
     inkscape:pageshadow="2"
     inkscape:zoom="5.8159535"
     inkscape:cx="-4.7392851"
     inkscape:cy="32.641973"
     inkscape:document-units="mm"
     inkscape:current-layer="layer1"
     showgrid="false"
     units="px"
     inkscape:window-width="1680"
     inkscape:window-height="986"
     inkscape:window-x="0"
     inkscape:window-y="27"
     inkscape:window-maximized="1" />
  <metadata
     id="metadata5">
    <rdf:RDF>
      <cc:Work
         rdf:about="">
        <dc:format>image/svg+xml</dc:format>
        <dc:type
           rdf:resource="http://purl.org/dc/dcmitype/StillImage" />
        <dc:title />
      </cc:Work>
    </rdf:RDF>
  </metadata>
  <g
     inkscape:label="Capa 1"
     inkscape:groupmode="layer"
     id="layer1"
     transform="translate(0,-275.83332)">
    <rect
       style="opacity:1;fill:#957324;fill-opacity:1;stroke:none;stroke-width:0.48100001;stroke-miterlimit:4;stroke-dasharray:none;stroke-opacity:1"
       id="rect812"
       width="21.326054"
       height="21.262299"
       x="-0.03187751"
       y="275.80145" />
    <path
       style="fill:#1a1a1a;stroke:none;stroke-width:0.265;stroke-linecap:butt;stroke-linejoin:miter;stroke-opacity:1;stroke-miterlimit:4;stroke-dasharray:none;opacity:0.486"
       d="m 3.0607246,285.85187 -3.10621728,3.23239 0.01361517,7.97949 12.54236551,-0.0183 1.583005,-3.8619 -0.885814,0.0256 -9.422834,-0.12298 z"
       id="path927"
       inkscape:connector-curvature="0" />
    <rect
       style="opacity:1;fill:none;fill-opacity:1;stroke:#ffffff;stroke-width:1.59099996;stroke-miterlimit:4;stroke-dasharray:none;stroke-dashoffset:0;stroke-opacity:1"
       id="rect876"
       width="0.57902718"
       height="0"
       x="12.030901"
       y="286.77051"
       ry="0" />
    <g
       id="g859"
       transform="matrix(0.03801153,0,0,0.03801153,7.4460444,278.66774)"
       style="fill:#ffffff">
      <path
         style="fill:#ffffff;stroke-width:0.26458332"
         d="m -96.450413,401.70965 c -9.693597,-2.0787 -17.127917,-9.53481 -19.195477,-19.25175 -0.58842,-2.76541 -0.57748,-191.0482 0.0113,-193.84699 1.91374,-9.09758 8.99548,-16.44252 18.280522,-18.95993 1.776989,-0.48179 5.441238,-0.49609 127.109945,-0.49609 H 155.03604 l 2.32744,0.73002 c 9.33577,2.92824 15.89892,10.31987 17.52351,19.73559 0.34602,2.00549 0.38606,14.00441 0.32351,97.00939 l -0.0714,94.72083 -0.59295,2.20077 c -2.4664,9.15396 -9.91101,16.30172 -18.90364,18.14989 -1.84478,0.37914 -13.88726,0.41712 -126.206258,0.3981 -105.111632,-0.0178 -124.430811,-0.0776 -125.886675,-0.38983 z M 153.13869,381.13861 c 0.53454,-0.40771 1.1801,-1.12208 1.43463,-1.5875 0.43809,-0.8012 0.46272,-5.80235 0.46272,-93.99888 v -93.15265 l -0.74509,-1.12593 c -0.46881,-0.70843 -1.15559,-1.31229 -1.85208,-1.62851 -1.08228,-0.49137 -3.82506,-0.50272 -122.864246,-0.5084 -85.39675,-0.004 -121.979685,0.0782 -122.502084,0.27561 -1.013592,0.38296 -2.188953,1.52473 -2.629498,2.55435 -0.30702,0.71755 -0.364289,15.44592 -0.364289,93.68703 v 92.83563 l 0.609267,1.15215 c 0.416708,0.788 0.973905,1.34496 1.763009,1.76225 l 1.153742,0.61011 122.281026,-0.067 122.281023,-0.067 z M -77.223701,363.31528 c -0.09719,-0.0972 -0.181578,-6.7946 -0.187523,-14.88314 l -0.01081,-14.70642 24.238968,-24.14323 c 13.331434,-13.27878 24.439378,-24.14323 24.684321,-24.14323 0.244943,0 5.742628,5.29828 12.21708,11.77396 6.4744517,6.47568 11.8914462,11.77396 12.0377687,11.77396 0.1463226,0 17.5297943,-17.26406 38.6299393,-38.36458 21.100145,-21.10053 38.542833,-38.36459 38.761532,-38.36459 0.2187,0 14.536571,14.13931 31.817495,31.42069 l 31.41986,31.42069 -0.0671,34.12983 -0.0671,34.12983 -106.648812,0.0665 c -58.656842,0.0366 -106.728326,-0.013 -106.825521,-0.11024 z m 24.799629,-97.04676 c -9.247815,-1.43659 -17.638448,-7.53282 -21.865677,-15.88655 -4.611823,-9.11376 -3.98593,-20.48439 1.602536,-29.11326 10.2508,-15.82774 32.245567,-18.18342 45.55046,-4.87852 12.411517,12.41151 11.265861,32.80036 -2.460456,43.78776 -6.336373,5.07203 -14.817121,7.33483 -22.826863,6.09057 z"
         id="path873"
         inkscape:connector-curvature="0" />
      <path
         style="fill:#ffffff;stroke-width:0.26458332"
         d="m -94.708198,401.82897 c -10.010642,-1.46806 -17.970952,-8.61722 -20.592222,-18.49388 l -0.59687,-2.24895 v -95.38229 -95.3823 l 0.59833,-2.3487 c 1.22691,-4.81614 3.52784,-8.68466 7.2681,-12.21977 4.013,-3.79287 8.811955,-5.92888 14.5387,-6.47114 2.094413,-0.19832 39.747653,-0.26005 125.232372,-0.20532 l 122.237498,0.0783 2.5845,0.71358 c 8.60468,2.37577 14.89369,8.47876 17.58757,17.06732 l 0.73001,2.32743 v 96.30833 96.30834 l -0.72937,2.32524 c -2.78334,8.87317 -8.99975,14.77116 -18.25302,17.31807 -1.55406,0.42774 -9.20742,0.45799 -125.347813,0.49542 -68.726701,0.0221 -124.38819,-0.0621 -125.257785,-0.18965 z M 152.70726,381.68173 c 0.46543,-0.25451 1.17981,-0.90008 1.5875,-1.43461 l 0.74128,-0.97186 0.0673,-93.42059 c 0.0652,-90.59613 0.0524,-93.44853 -0.42426,-94.34456 -0.27032,-0.50818 -0.99544,-1.28116 -1.61139,-1.71772 l -1.11987,-0.79375 -121.71817,-0.0676 c -85.048346,-0.0472 -122.031694,0.0169 -122.758877,0.21268 -1.383467,0.37253 -3.047926,1.90759 -3.385259,3.12208 -0.380349,1.36936 -0.371904,185.27243 0.0086,186.64249 0.338384,1.21851 1.802911,2.73764 2.962963,3.07345 0.530365,0.15353 47.452367,0.23206 122.831119,0.20557 115.591224,-0.0406 122.017184,-0.0671 122.819134,-0.50561 z m -229.6667,-18.63136 c -0.09701,-0.097 -0.17639,-6.72731 -0.17639,-14.73399 v -14.5576 l 24.114022,-23.96132 c 13.26271,-13.17873 24.305757,-23.99416 24.540104,-24.0343 0.262475,-0.045 4.946626,4.45062 12.198927,11.70781 6.475063,6.47944 11.8922533,11.78079 12.0382028,11.78079 0.1459468,0 17.6191622,-17.35336 38.8293662,-38.56302 l 38.564008,-38.56302 31.61706,31.62004 31.61706,31.62004 v 33.51196 c 0,18.43159 -0.0723,33.7003 -0.1606,33.93049 -0.14608,0.38067 -9.78376,0.41851 -106.582985,0.41851 -58.532313,0 -106.501763,-0.0794 -106.598775,-0.17639 z m 23.809484,-97.06667 c -12.283533,-2.31944 -21.956864,-12.28912 -23.737115,-24.46433 -0.490466,-3.35432 -0.185905,-8.79778 0.666207,-11.90719 4.441172,-16.20614 21.301125,-25.34386 37.362554,-20.24967 11.251318,3.56857 19.466451,14.2731 20.10919,26.20279 0.753277,13.98132 -8.436274,26.44321 -22.138793,30.02227 -2.957764,0.77256 -9.200433,0.97423 -12.262043,0.39613 z"
         id="path871"
         inkscape:connector-curvature="0" />
      <path
         style="fill:#ffffff;stroke-width:0.26458332"
         d="m -96.18583,401.45329 c -6.13744,-1.25944 -11.8971,-5.03585 -15.36252,-10.07266 -1.12476,-1.63479 -2.99327,-5.68201 -3.59228,-7.78095 -0.47323,-1.65822 -0.49368,-5.1256 -0.57133,-96.8375 -0.0593,-70.07003 -10e-4,-95.62795 0.22016,-97.05533 1.30371,-8.40103 7.26183,-15.69579 15.38137,-18.83201 4.429375,-1.71087 -5.63263,-1.58786 129.702487,-1.58566 84.554643,0.001 123.600873,0.0888 124.782533,0.2794 7.8028,1.25861 14.74202,6.4658 18.15716,13.62512 0.62891,1.31842 1.41449,3.46155 1.74575,4.7625 l 0.60229,2.36535 v 95.3823 95.38229 l -0.70027,2.53201 c -1.29982,4.69983 -3.49469,8.30378 -7.16936,11.77187 -3.43159,3.23869 -7.88755,5.46687 -12.37099,6.18604 -1.17716,0.18883 -40.7471,0.26866 -125.4125,0.25301 -101.996809,-0.0188 -123.994362,-0.0848 -125.4125,-0.37578 z m 249.12508,-19.83565 c 0.61859,-0.36251 1.40295,-1.10665 1.74305,-1.65364 l 0.61833,-0.99453 0.0775,-92.73646 c 0.0554,-66.24814 -0.005,-93.02111 -0.21037,-93.73303 -0.36039,-1.24769 -1.70765,-2.80679 -2.83104,-3.27617 -0.71435,-0.29847 -20.98646,-0.35746 -122.847479,-0.35746 -121.281264,0 -121.99797,0.003 -123.024421,0.52672 -0.567854,0.2897 -1.366785,0.96504 -1.775397,1.50075 l -0.742931,0.97403 -0.07508,93.02164 c -0.0413,51.16191 -0.0057,93.41114 0.07919,93.8872 0.186383,1.04565 1.540397,2.65362 2.636803,3.13136 0.656167,0.28591 22.604849,0.34985 123.012923,0.35835 l 122.214262,0.0104 z M -76.805101,363.0517 c -0.258918,-0.10461 -0.330729,-3.27337 -0.330729,-14.59411 v -14.46048 l 24.141258,-24.14663 c 13.277694,-13.28065 24.260723,-24.14663 24.406736,-24.14663 0.14601,0 5.653706,5.38725 12.239323,11.97168 L -4.3746619,309.64721 34.188322,271.0849 c 21.20964,-21.20927 38.741614,-38.5623 38.959938,-38.5623 0.218326,0 14.476362,14.07978 31.68452,31.2884 l 31.28757,31.2884 -0.0671,33.99753 -0.0671,33.99754 -106.230213,0.0454 c -58.426615,0.025 -106.379037,-0.0147 -106.560938,-0.0882 z m 25.201563,-96.96072 c -4.090316,-0.51092 -9.137243,-2.40972 -12.599149,-4.74015 -2.326182,-1.56591 -6.048671,-5.2501 -7.660484,-7.58167 -7.118845,-10.29777 -6.896965,-24.09022 0.546671,-33.98229 9.270326,-12.31961 26.399705,-15.40204 39.20521,-7.05499 6.675131,4.35106 11.287159,11.23573 12.795152,19.10013 0.43298,2.25804 0.565267,7.07252 0.255453,9.29706 -2.192155,15.74019 -16.781217,26.9307 -32.542853,24.96191 z"
         id="path869"
         inkscape:connector-curvature="0" />
      <path
         style="fill:#ffffff;stroke-width:0.26458332"
         d="m -94.995205,401.56358 c -5.139145,-0.74472 -10.148095,-3.36742 -13.922505,-7.28985 -3.05038,-3.17 -5.10164,-6.90294 -6.24886,-11.37181 -0.44091,-1.71753 -0.46614,-6.98446 -0.46614,-97.33037 v -95.51458 l 0.59688,-2.24896 c 1.20317,-4.53344 3.59639,-8.5795 6.94091,-11.73455 3.18961,-3.00891 6.76308,-4.97135 11.035608,-6.06041 l 2.32869,-0.59358 H 29.22667 c 134.76825,0 125.34032,-0.1063 129.68571,1.46217 8.12117,2.93133 14.24506,10.33936 15.56194,18.82521 0.22148,1.42738 0.27948,26.9853 0.22013,97.05533 -0.0776,91.60317 -0.0986,95.18125 -0.5698,96.8375 -0.79698,2.80135 -2.86137,6.84584 -4.62069,9.05271 -3.37632,4.23526 -7.82457,7.07559 -13.41733,8.56729 -1.78425,0.47589 -5.87838,0.49326 -125.669335,0.53294 -69.014956,0.0229 -124.527694,-0.0608 -125.4125,-0.18904 z M 152.75904,381.87989 c 0.4939,-0.29105 1.2678,-0.9867 1.71979,-1.54591 l 0.8218,-1.01674 0.0673,-93.38173 c 0.0669,-92.84804 0.0642,-93.38765 -0.46059,-94.41637 -0.2903,-0.56905 -0.96615,-1.36896 -1.50186,-1.77757 l -0.97403,-0.74293 -122.617444,-0.067 -122.617442,-0.067 -1.006216,0.56553 c -1.143595,0.64274 -1.880161,1.54318 -2.330542,2.84908 -0.421664,1.22264 -0.44821,185.12418 -0.02694,186.64124 0.364614,1.31305 2.012312,2.9482 3.320357,3.29507 0.697608,0.185 40.07358,0.25962 122.867237,0.23286 121.32921,-0.0392 121.84438,-0.0416 122.73862,-0.56854 z M -76.871247,348.47602 v -14.48681 l 24.01148,-24.01039 c 13.206315,-13.20572 24.128537,-24.01039 24.271611,-24.01039 0.14307,0 5.563253,5.29828 12.044851,11.77396 6.481596,6.47567 11.9600773,11.77395 12.1744057,11.77395 0.2143257,0 17.7431783,-17.35319 38.9530033,-38.56264 l 38.563323,-38.56264 31.486263,31.48504 31.48626,31.48504 -0.067,33.73437 -0.0669,33.73438 -106.428651,0.0665 -106.428646,0.0665 z m 24.320339,-82.6187 c -12.0895,-2.04611 -21.649672,-11.37708 -23.920291,-23.3468 -0.519743,-2.73986 -0.513869,-8.00653 0.01201,-10.7788 2.246947,-11.84494 11.689535,-21.08372 23.687873,-23.17659 3.239323,-0.56504 8.748451,-0.3892 11.626959,0.37111 5.689343,1.50274 9.43294,3.63831 13.506762,7.70505 2.934576,2.92948 4.420642,4.9656 5.940406,8.13918 4.127683,8.61946 3.545946,19.30632 -1.499166,27.54051 -2.487927,4.06057 -5.649013,7.17601 -9.910551,9.76744 -4.55476,2.76974 -9.394846,4.06823 -14.966328,4.01514 -1.796153,-0.0171 -3.811109,-0.12342 -4.477684,-0.23624 z"
         id="path867"
         inkscape:connector-curvature="0" />
      <path
         style="fill:#ffffff;stroke-width:0.26458332"
         d="m -96.582705,401.15324 c -7.724485,-1.64727 -14.366095,-7.27652 -17.291065,-14.65543 -1.78151,-4.49428 -1.64811,4.16319 -1.56738,-101.72001 l 0.073,-95.77916 0.61173,-1.97415 c 2.78609,-8.99102 10.16155,-15.59119 19.214466,-17.19466 1.082498,-0.19173 39.909864,-0.27807 125.052542,-0.27807 136.197792,0 125.382632,-0.13429 129.915522,1.61316 3.98209,1.5351 8.5815,5.19477 11.06467,8.80394 1.3136,1.90924 2.87411,5.37714 3.52753,7.83915 l 0.59687,2.24896 v 95.51458 c 0,90.30131 -0.0254,95.61356 -0.46556,97.32789 -1.24341,4.84296 -3.11608,8.11834 -6.67819,11.68045 -3.65265,3.65265 -7.20579,5.59798 -12.10831,6.62925 -2.79233,0.58739 -249.185669,0.53272 -251.945855,-0.0559 z M 153.26421,381.68115 c 0.60497,-0.40034 1.37017,-1.23378 1.70045,-1.85208 l 0.60055,-1.12418 v -93.13334 -93.13333 l -0.64198,-1.12084 c -0.35309,-0.61647 -1.11684,-1.4499 -1.69717,-1.85209 l -1.05519,-0.73124 -121.995531,-0.0773 c -85.992825,-0.0545 -122.284834,0.006 -122.975807,0.20549 -1.272423,0.36706 -2.483601,1.40096 -3.133487,2.67484 -0.512654,1.00488 -0.517892,2.1003 -0.451421,94.39842 l 0.06725,93.38173 0.818902,1.01674 c 0.450397,0.55921 1.283835,1.28289 1.852083,1.60818 l 1.033182,0.59144 122.389119,-0.0623 122.38912,-0.0623 z M -76.694857,362.78579 c -0.09701,-0.097 -0.17639,-6.61415 -0.17639,-14.48252 v -14.30613 l 24.008956,-24.01435 c 13.204928,-13.2079 24.128426,-24.01436 24.274444,-24.01436 0.146016,0 5.653717,5.38725 12.239334,11.97168 l 11.9738511,11.97168 38.5629839,-38.5623 c 21.20964,-21.20927 38.741614,-38.56231 38.959941,-38.56231 0.218326,0 14.416376,14.0198 31.551227,31.1551 l 31.15426,31.15511 v 33.93239 33.9324 H 29.667643 c -58.402363,0 -106.265488,-0.0794 -106.3625,-0.17639 z m 24.832067,-96.93813 c -4.387567,-0.6886 -8.847826,-2.40997 -12.340897,-4.76278 -2.330588,-1.5698 -5.784734,-4.98653 -7.392885,-7.3128 -1.823212,-2.63737 -3.570655,-6.41505 -4.410342,-9.53444 -0.625112,-2.32224 -0.695732,-3.04712 -0.690226,-7.08484 0.0055,-4.02098 0.08085,-4.77846 0.710803,-7.14375 0.840324,-3.15519 3.064491,-7.77943 4.908595,-10.20541 6.100373,-8.02522 16.178366,-12.45385 25.932982,-11.39587 6.935935,0.75227 12.83653,3.54302 17.600414,8.32431 9.738214,9.7738 11.300103,24.70466 3.789608,36.22677 -4.210706,6.4598 -10.633792,10.85458 -18.3238,12.53745 -2.265262,0.49572 -7.635582,0.68858 -9.784252,0.35136 z"
         id="path865"
         inkscape:connector-curvature="0" />
      <path
         style="fill:#ffffff;stroke-width:0.26458332"
         d="m -95.56629,401.20102 c -10.11662,-1.84174 -17.8012,-9.57509 -19.54238,-19.66642 -0.34873,-2.02113 -0.38859,-13.80505 -0.3282,-97.02138 l 0.0687,-94.72083 0.59673,-2.11667 c 2.45651,-8.71346 8.85235,-15.04308 17.57541,-17.39345 l 2.200775,-0.59298 122.898958,-0.0807 c 86.661287,-0.0569 123.636297,0.003 125.399637,0.20459 9.82438,1.12095 17.95611,8.18909 20.55051,17.86258 0.48159,1.7957 0.49673,4.77996 0.49673,98.02813 0,91.89604 -0.0212,96.25257 -0.4775,97.89583 -0.74631,2.68787 -2.91441,6.88864 -4.7027,9.11162 -2.98069,3.7052 -7.70027,6.76952 -12.54689,8.14642 l -2.11666,0.60133 -124.089585,0.0434 c -100.973919,0.0353 -124.442403,-0.0208 -125.983585,-0.30142 z M 151.57598,382.5526 c 1.23614,-0.2867 2.08659,-0.88459 3.18016,-2.23574 l 0.80907,-0.99962 0.0773,-93.04264 c 0.0552,-66.42957 -0.005,-93.32768 -0.21037,-94.0392 -0.3601,-1.24757 -1.70733,-2.80674 -2.83086,-3.27617 -0.7144,-0.2985 -21.03038,-0.35675 -123.167664,-0.35311 l -122.312144,0.004 -1.05051,0.59499 c -1.183521,0.67032 -2.122826,1.91443 -2.517124,3.33393 -0.40662,1.46386 -0.367199,184.61445 0.04008,186.23191 0.390802,1.55201 2.082601,3.31814 3.550152,3.70612 1.334855,0.3529 242.91411,0.4272 244.43192,0.0752 z M -76.553747,362.64468 c -0.238963,-0.23897 -0.3175,-3.78866 -0.3175,-14.35023 v -14.03272 l 24.008956,-24.01436 c 13.204928,-13.2079 24.129413,-24.01436 24.276637,-24.01436 0.147223,0 5.564955,5.29828 12.039407,11.77396 6.474452,6.47568 11.9506712,11.77396 12.1693811,11.77396 0.2187072,0 17.7511449,-17.35319 38.9609699,-38.56264 l 38.56332,-38.56264 31.353166,31.35232 31.35316,31.35233 v 33.64034 c 0,30.43151 -0.0399,33.65566 -0.41851,33.80094 -0.23019,0.0883 -47.950434,0.1606 -106.045002,0.1606 -81.801155,0 -105.698099,-0.0716 -105.943985,-0.3175 z m 22.70125,-97.28645 c -11.621161,-2.57012 -20.37267,-11.63656 -22.486964,-23.29619 -0.431405,-2.37906 -0.369218,-7.68998 0.11979,-10.23003 2.108068,-10.95001 10.17065,-19.60415 20.989804,-22.52984 2.299292,-0.62177 3.052479,-0.69572 7.198204,-0.70678 4.042939,-0.0108 4.932233,0.0669 7.011458,0.61247 5.418664,1.42177 9.407914,3.71441 13.375643,7.68702 3.487467,3.49176 5.535903,6.75136 6.998462,11.13638 5.221221,15.6542 -3.782127,32.47729 -19.763865,36.92952 -3.413752,0.95102 -10.052029,1.14729 -13.442532,0.39745 z"
         id="path863"
         inkscape:connector-curvature="0" />
      <path
         style="fill:#ffffff;stroke-width:0.26458332"
         d="m -95.436832,401.05605 c -7.616468,-1.28528 -14.514208,-6.59035 -17.697678,-13.61136 -0.42094,-0.92837 -1.03618,-2.56023 -1.36719,-3.62637 l -0.60184,-1.93843 -0.0722,-95.11771 c -0.0497,-65.47117 0.0144,-95.68404 0.20566,-96.93474 0.62521,-4.0879 2.65778,-8.45387 5.46593,-11.74084 2.826,-3.30786 6.95426,-5.937 11.614877,-7.39707 l 2.364941,-0.74089 123.957292,-0.0685 c 136.26666,-0.0752 126.24316,-0.19058 130.60437,1.50288 3.32589,1.29145 5.58318,2.80121 8.30188,5.55263 4.12279,4.17241 6.24647,8.55379 6.8729,14.1796 0.21238,1.90739 0.27283,28.78672 0.21658,96.30834 l -0.078,93.6625 -0.58336,2.04611 c -1.32648,4.65254 -3.32634,8.1842 -6.34235,11.2002 -3.49493,3.49494 -8.02299,5.85233 -12.9005,6.71624 -1.87174,0.33153 -247.997316,0.33877 -249.961252,0.007 z M 153.52855,381.91612 c 0.68303,-0.47334 1.34454,-1.26207 1.76332,-2.10247 l 0.67022,-1.34496 -0.003,-92.61836 c 0,-64.47794 -0.0868,-92.92551 -0.28218,-93.62927 -0.37534,-1.35162 -1.8765,-2.96313 -3.23889,-3.47698 -1.00436,-0.37881 -12.50945,-0.41109 -123.388513,-0.34619 l -122.279696,0.0716 -1.145021,0.80476 c -0.629762,0.44261 -1.411965,1.27605 -1.738225,1.85208 l -0.593207,1.04733 -0.0043,93.34231 c -0.0043,91.2351 0.007,93.36447 0.499065,94.32396 0.568981,1.10949 1.376712,1.91326 2.539291,2.52685 0.721265,0.38067 11.994671,0.41381 123.450749,0.3629 l 122.656987,-0.056 z M -76.430274,362.5212 c -0.09701,-0.097 -0.176389,-6.49687 -0.176389,-14.2219 v -14.04551 l 23.879191,-23.8781 c 13.133554,-13.13295 23.99851,-23.87809 24.144343,-23.87809 0.145835,0 5.56243,5.29828 12.036882,11.77395 6.474452,6.47568 11.9506712,11.77396 12.1693811,11.77396 0.2187072,0 17.7511449,-17.35319 38.9609699,-38.56264 l 38.56332,-38.56264 31.220876,31.22003 31.22087,31.22004 v 33.66864 33.66865 H 29.667643 c -58.256842,0 -106.000904,-0.0794 -106.097917,-0.17639 z m 25.255408,-96.95628 c -11.536659,-1.33839 -21.008369,-9.36166 -24.253124,-20.54426 -4.382976,-15.10534 4.560896,-31.05834 19.839705,-35.38768 11.143713,-3.15764 23.648411,1.10793 30.550615,10.42134 3.802483,5.13084 5.584343,10.62188 5.57753,17.18791 -0.0079,7.58326 -2.560786,14.02619 -7.719997,19.48333 -4.789471,5.06605 -10.836605,8.07914 -17.764998,8.8517 -2.823633,0.31485 -3.419586,0.31367 -6.229731,-0.0123 z"
         id="path861"
         inkscape:connector-curvature="0" />
    </g>
    <g
       style="fill:#ffffff"
       transform="matrix(0.01165829,0,0,0.01165829,16.62534,276.31718)"
       id="g909">
      <path
         inkscape:connector-curvature="0"
         id="path895"
         d="m -80.841714,366.59008 c -9.693597,-2.0787 -17.127917,-9.53481 -19.195476,-19.25175 -0.58842,-2.76541 -0.57748,-191.0482 0.0113,-193.84699 1.913739,-9.09758 8.995479,-16.44252 18.280521,-18.95993 1.776989,-0.48179 5.441238,-0.49609 127.109945,-0.49609 H 170.64474 l 2.32744,0.73002 c 9.33577,2.92824 15.89892,10.31987 17.52351,19.73559 0.34602,2.00549 0.38606,14.00441 0.32351,97.00939 l -0.0714,94.72083 -0.59295,2.20077 c -2.4664,9.15396 -9.91101,16.30172 -18.90364,18.14989 -1.84478,0.37914 -13.88726,0.41712 -126.206259,0.3981 -105.111632,-0.0178 -124.430811,-0.0776 -125.886675,-0.38983 z M 168.74739,346.01904 c 0.53454,-0.40771 1.1801,-1.12208 1.43463,-1.5875 0.43809,-0.8012 0.46272,-5.80235 0.46272,-93.99888 v -93.15265 l -0.74509,-1.12593 c -0.46881,-0.70843 -1.15559,-1.31229 -1.85208,-1.62851 -1.08228,-0.49137 -3.82506,-0.50272 -122.864247,-0.5084 -85.39675,-0.004 -121.979685,0.0782 -122.502084,0.27561 -1.013592,0.38296 -2.188953,1.52473 -2.629498,2.55435 -0.30702,0.71755 -0.364289,15.44592 -0.364289,93.68703 v 92.83563 l 0.609267,1.15215 c 0.416708,0.788 0.973905,1.34496 1.763009,1.76225 l 1.153742,0.61011 122.281026,-0.067 122.281024,-0.067 z M -61.615002,328.19571 c -0.09719,-0.0972 -0.181578,-6.7946 -0.187523,-14.88314 l -0.01081,-14.70642 24.238968,-24.14323 c 13.331434,-13.27878 24.439378,-24.14323 24.684321,-24.14323 0.244943,0 5.7426276,5.29828 12.21707961,11.77396 6.47445169,6.47568 11.89144639,11.77396 12.03776839,11.77396 0.146323,0 17.529795,-17.26406 38.62994,-38.36458 21.100145,-21.10053 38.542833,-38.36459 38.761532,-38.36459 0.2187,0 14.536566,14.13931 31.817496,31.42069 l 31.41986,31.42069 -0.0671,34.12983 -0.0671,34.12983 -106.648813,0.0665 c -58.656842,0.0366 -106.728326,-0.013 -106.825521,-0.11024 z m 24.799629,-97.04676 c -9.247815,-1.43659 -17.638448,-7.53282 -21.865677,-15.88655 -4.611823,-9.11376 -3.98593,-20.48439 1.602536,-29.11326 10.2508,-15.82774 32.245567,-18.18342 45.55046,-4.87852 12.41151661,12.41151 11.26586061,32.80036 -2.460456,43.78776 -6.336373,5.07203 -14.817121,7.33483 -22.826863,6.09057 z"
         style="fill:#ffffff;stroke-width:0.26458332" />
    </g>
    <g
       id="g925"
       transform="matrix(0.01571851,0,0,0.01571851,12.046394,277.98419)"
       style="fill:#ffffff">
      <path
         style="fill:#ffffff;stroke-width:0.26458332"
         d="m -96.450413,401.70965 c -9.693597,-2.0787 -17.127917,-9.53481 -19.195477,-19.25175 -0.58842,-2.76541 -0.57748,-191.0482 0.0113,-193.84699 1.91374,-9.09758 8.99548,-16.44252 18.280522,-18.95993 1.776989,-0.48179 5.441238,-0.49609 127.109945,-0.49609 H 155.03604 l 2.32744,0.73002 c 9.33577,2.92824 15.89892,10.31987 17.52351,19.73559 0.34602,2.00549 0.38606,14.00441 0.32351,97.00939 l -0.0714,94.72083 -0.59295,2.20077 c -2.4664,9.15396 -9.91101,16.30172 -18.90364,18.14989 -1.84478,0.37914 -13.88726,0.41712 -126.206258,0.3981 -105.111632,-0.0178 -124.430811,-0.0776 -125.886675,-0.38983 z M 153.13869,381.13861 c 0.53454,-0.40771 1.1801,-1.12208 1.43463,-1.5875 0.43809,-0.8012 0.46272,-5.80235 0.46272,-93.99888 v -93.15265 l -0.74509,-1.12593 c -0.46881,-0.70843 -1.15559,-1.31229 -1.85208,-1.62851 -1.08228,-0.49137 -3.82506,-0.50272 -122.864246,-0.5084 -85.39675,-0.004 -121.979685,0.0782 -122.502084,0.27561 -1.013592,0.38296 -2.188953,1.52473 -2.629498,2.55435 -0.30702,0.71755 -0.364289,15.44592 -0.364289,93.68703 v 92.83563 l 0.609267,1.15215 c 0.416708,0.788 0.973905,1.34496 1.763009,1.76225 l 1.153742,0.61011 122.281026,-0.067 122.281023,-0.067 z M -77.223701,363.31528 c -0.09719,-0.0972 -0.181578,-6.7946 -0.187523,-14.88314 l -0.01081,-14.70642 24.238968,-24.14323 c 13.331434,-13.27878 24.439378,-24.14323 24.684321,-24.14323 0.244943,0 5.742628,5.29828 12.21708,11.77396 6.4744517,6.47568 11.8914462,11.77396 12.0377687,11.77396 0.1463226,0 17.5297943,-17.26406 38.6299393,-38.36458 21.100145,-21.10053 38.542833,-38.36459 38.761532,-38.36459 0.2187,0 14.536571,14.13931 31.817495,31.42069 l 31.41986,31.42069 -0.0671,34.12983 -0.0671,34.12983 -106.648812,0.0665 c -58.656842,0.0366 -106.728326,-0.013 -106.825521,-0.11024 z m 24.799629,-97.04676 c -9.247815,-1.43659 -17.638448,-7.53282 -21.865677,-15.88655 -4.611823,-9.11376 -3.98593,-20.48439 1.602536,-29.11326 10.2508,-15.82774 32.245567,-18.18342 45.55046,-4.87852 12.411517,12.41151 11.265861,32.80036 -2.460456,43.78776 -6.336373,5.07203 -14.817121,7.33483 -22.826863,6.09057 z"
         id="path911"
         inkscape:connector-curvature="0" />
      <path
         style="fill:#ffffff;stroke-width:0.26458332"
         d="m -94.708198,401.82897 c -10.010642,-1.46806 -17.970952,-8.61722 -20.592222,-18.49388 l -0.59687,-2.24895 v -95.38229 -95.3823 l 0.59833,-2.3487 c 1.22691,-4.81614 3.52784,-8.68466 7.2681,-12.21977 4.013,-3.79287 8.811955,-5.92888 14.5387,-6.47114 2.094413,-0.19832 39.747653,-0.26005 125.232372,-0.20532 l 122.237498,0.0783 2.5845,0.71358 c 8.60468,2.37577 14.89369,8.47876 17.58757,17.06732 l 0.73001,2.32743 v 96.30833 96.30834 l -0.72937,2.32524 c -2.78334,8.87317 -8.99975,14.77116 -18.25302,17.31807 -1.55406,0.42774 -9.20742,0.45799 -125.347813,0.49542 -68.726701,0.0221 -124.38819,-0.0621 -125.257785,-0.18965 z M 152.70726,381.68173 c 0.46543,-0.25451 1.17981,-0.90008 1.5875,-1.43461 l 0.74128,-0.97186 0.0673,-93.42059 c 0.0652,-90.59613 0.0524,-93.44853 -0.42426,-94.34456 -0.27032,-0.50818 -0.99544,-1.28116 -1.61139,-1.71772 l -1.11987,-0.79375 -121.71817,-0.0676 c -85.048346,-0.0472 -122.031694,0.0169 -122.758877,0.21268 -1.383467,0.37253 -3.047926,1.90759 -3.385259,3.12208 -0.380349,1.36936 -0.371904,185.27243 0.0086,186.64249 0.338384,1.21851 1.802911,2.73764 2.962963,3.07345 0.530365,0.15353 47.452367,0.23206 122.831119,0.20557 115.591224,-0.0406 122.017184,-0.0671 122.819134,-0.50561 z m -229.6667,-18.63136 c -0.09701,-0.097 -0.17639,-6.72731 -0.17639,-14.73399 v -14.5576 l 24.114022,-23.96132 c 13.26271,-13.17873 24.305757,-23.99416 24.540104,-24.0343 0.262475,-0.045 4.946626,4.45062 12.198927,11.70781 6.475063,6.47944 11.8922533,11.78079 12.0382028,11.78079 0.1459468,0 17.6191622,-17.35336 38.8293662,-38.56302 l 38.564008,-38.56302 31.61706,31.62004 31.61706,31.62004 v 33.51196 c 0,18.43159 -0.0723,33.7003 -0.1606,33.93049 -0.14608,0.38067 -9.78376,0.41851 -106.582985,0.41851 -58.532313,0 -106.501763,-0.0794 -106.598775,-0.17639 z m 23.809484,-97.06667 c -12.283533,-2.31944 -21.956864,-12.28912 -23.737115,-24.46433 -0.490466,-3.35432 -0.185905,-8.79778 0.666207,-11.90719 4.441172,-16.20614 21.301125,-25.34386 37.362554,-20.24967 11.251318,3.56857 19.466451,14.2731 20.10919,26.20279 0.753277,13.98132 -8.436274,26.44321 -22.138793,30.02227 -2.957764,0.77256 -9.200433,0.97423 -12.262043,0.39613 z"
         id="path913"
         inkscape:connector-curvature="0" />
      <path
         style="fill:#ffffff;stroke-width:0.26458332"
         d="m -96.18583,401.45329 c -6.13744,-1.25944 -11.8971,-5.03585 -15.36252,-10.07266 -1.12476,-1.63479 -2.99327,-5.68201 -3.59228,-7.78095 -0.47323,-1.65822 -0.49368,-5.1256 -0.57133,-96.8375 -0.0593,-70.07003 -10e-4,-95.62795 0.22016,-97.05533 1.30371,-8.40103 7.26183,-15.69579 15.38137,-18.83201 4.429375,-1.71087 -5.63263,-1.58786 129.702487,-1.58566 84.554643,0.001 123.600873,0.0888 124.782533,0.2794 7.8028,1.25861 14.74202,6.4658 18.15716,13.62512 0.62891,1.31842 1.41449,3.46155 1.74575,4.7625 l 0.60229,2.36535 v 95.3823 95.38229 l -0.70027,2.53201 c -1.29982,4.69983 -3.49469,8.30378 -7.16936,11.77187 -3.43159,3.23869 -7.88755,5.46687 -12.37099,6.18604 -1.17716,0.18883 -40.7471,0.26866 -125.4125,0.25301 -101.996809,-0.0188 -123.994362,-0.0848 -125.4125,-0.37578 z m 249.12508,-19.83565 c 0.61859,-0.36251 1.40295,-1.10665 1.74305,-1.65364 l 0.61833,-0.99453 0.0775,-92.73646 c 0.0554,-66.24814 -0.005,-93.02111 -0.21037,-93.73303 -0.36039,-1.24769 -1.70765,-2.80679 -2.83104,-3.27617 -0.71435,-0.29847 -20.98646,-0.35746 -122.847479,-0.35746 -121.281264,0 -121.99797,0.003 -123.024421,0.52672 -0.567854,0.2897 -1.366785,0.96504 -1.775397,1.50075 l -0.742931,0.97403 -0.07508,93.02164 c -0.0413,51.16191 -0.0057,93.41114 0.07919,93.8872 0.186383,1.04565 1.540397,2.65362 2.636803,3.13136 0.656167,0.28591 22.604849,0.34985 123.012923,0.35835 l 122.214262,0.0104 z M -76.805101,363.0517 c -0.258918,-0.10461 -0.330729,-3.27337 -0.330729,-14.59411 v -14.46048 l 24.141258,-24.14663 c 13.277694,-13.28065 24.260723,-24.14663 24.406736,-24.14663 0.14601,0 5.653706,5.38725 12.239323,11.97168 L -4.3746619,309.64721 34.188322,271.0849 c 21.20964,-21.20927 38.741614,-38.5623 38.959938,-38.5623 0.218326,0 14.476362,14.07978 31.68452,31.2884 l 31.28757,31.2884 -0.0671,33.99753 -0.0671,33.99754 -106.230213,0.0454 c -58.426615,0.025 -106.379037,-0.0147 -106.560938,-0.0882 z m 25.201563,-96.96072 c -4.090316,-0.51092 -9.137243,-2.40972 -12.599149,-4.74015 -2.326182,-1.56591 -6.048671,-5.2501 -7.660484,-7.58167 -7.118845,-10.29777 -6.896965,-24.09022 0.546671,-33.98229 9.270326,-12.31961 26.399705,-15.40204 39.20521,-7.05499 6.675131,4.35106 11.287159,11.23573 12.795152,19.10013 0.43298,2.25804 0.565267,7.07252 0.255453,9.29706 -2.192155,15.74019 -16.781217,26.9307 -32.542853,24.96191 z"
         id="path915"
         inkscape:connector-curvature="0" />
      <path
         style="fill:#ffffff;stroke-width:0.26458332"
         d="m -94.995205,401.56358 c -5.139145,-0.74472 -10.148095,-3.36742 -13.922505,-7.28985 -3.05038,-3.17 -5.10164,-6.90294 -6.24886,-11.37181 -0.44091,-1.71753 -0.46614,-6.98446 -0.46614,-97.33037 v -95.51458 l 0.59688,-2.24896 c 1.20317,-4.53344 3.59639,-8.5795 6.94091,-11.73455 3.18961,-3.00891 6.76308,-4.97135 11.035608,-6.06041 l 2.32869,-0.59358 H 29.22667 c 134.76825,0 125.34032,-0.1063 129.68571,1.46217 8.12117,2.93133 14.24506,10.33936 15.56194,18.82521 0.22148,1.42738 0.27948,26.9853 0.22013,97.05533 -0.0776,91.60317 -0.0986,95.18125 -0.5698,96.8375 -0.79698,2.80135 -2.86137,6.84584 -4.62069,9.05271 -3.37632,4.23526 -7.82457,7.07559 -13.41733,8.56729 -1.78425,0.47589 -5.87838,0.49326 -125.669335,0.53294 -69.014956,0.0229 -124.527694,-0.0608 -125.4125,-0.18904 z M 152.75904,381.87989 c 0.4939,-0.29105 1.2678,-0.9867 1.71979,-1.54591 l 0.8218,-1.01674 0.0673,-93.38173 c 0.0669,-92.84804 0.0642,-93.38765 -0.46059,-94.41637 -0.2903,-0.56905 -0.96615,-1.36896 -1.50186,-1.77757 l -0.97403,-0.74293 -122.617444,-0.067 -122.617442,-0.067 -1.006216,0.56553 c -1.143595,0.64274 -1.880161,1.54318 -2.330542,2.84908 -0.421664,1.22264 -0.44821,185.12418 -0.02694,186.64124 0.364614,1.31305 2.012312,2.9482 3.320357,3.29507 0.697608,0.185 40.07358,0.25962 122.867237,0.23286 121.32921,-0.0392 121.84438,-0.0416 122.73862,-0.56854 z M -76.871247,348.47602 v -14.48681 l 24.01148,-24.01039 c 13.206315,-13.20572 24.128537,-24.01039 24.271611,-24.01039 0.14307,0 5.563253,5.29828 12.044851,11.77396 6.481596,6.47567 11.9600773,11.77395 12.1744057,11.77395 0.2143257,0 17.7431783,-17.35319 38.9530033,-38.56264 l 38.563323,-38.56264 31.486263,31.48504 31.48626,31.48504 -0.067,33.73437 -0.0669,33.73438 -106.428651,0.0665 -106.428646,0.0665 z m 24.320339,-82.6187 c -12.0895,-2.04611 -21.649672,-11.37708 -23.920291,-23.3468 -0.519743,-2.73986 -0.513869,-8.00653 0.01201,-10.7788 2.246947,-11.84494 11.689535,-21.08372 23.687873,-23.17659 3.239323,-0.56504 8.748451,-0.3892 11.626959,0.37111 5.689343,1.50274 9.43294,3.63831 13.506762,7.70505 2.934576,2.92948 4.420642,4.9656 5.940406,8.13918 4.127683,8.61946 3.545946,19.30632 -1.499166,27.54051 -2.487927,4.06057 -5.649013,7.17601 -9.910551,9.76744 -4.55476,2.76974 -9.394846,4.06823 -14.966328,4.01514 -1.796153,-0.0171 -3.811109,-0.12342 -4.477684,-0.23624 z"
         id="path917"
         inkscape:connector-curvature="0" />
      <path
         style="fill:#ffffff;stroke-width:0.26458332"
         d="m -96.582705,401.15324 c -7.724485,-1.64727 -14.366095,-7.27652 -17.291065,-14.65543 -1.78151,-4.49428 -1.64811,4.16319 -1.56738,-101.72001 l 0.073,-95.77916 0.61173,-1.97415 c 2.78609,-8.99102 10.16155,-15.59119 19.214466,-17.19466 1.082498,-0.19173 39.909864,-0.27807 125.052542,-0.27807 136.197792,0 125.382632,-0.13429 129.915522,1.61316 3.98209,1.5351 8.5815,5.19477 11.06467,8.80394 1.3136,1.90924 2.87411,5.37714 3.52753,7.83915 l 0.59687,2.24896 v 95.51458 c 0,90.30131 -0.0254,95.61356 -0.46556,97.32789 -1.24341,4.84296 -3.11608,8.11834 -6.67819,11.68045 -3.65265,3.65265 -7.20579,5.59798 -12.10831,6.62925 -2.79233,0.58739 -249.185669,0.53272 -251.945855,-0.0559 z M 153.26421,381.68115 c 0.60497,-0.40034 1.37017,-1.23378 1.70045,-1.85208 l 0.60055,-1.12418 v -93.13334 -93.13333 l -0.64198,-1.12084 c -0.35309,-0.61647 -1.11684,-1.4499 -1.69717,-1.85209 l -1.05519,-0.73124 -121.995531,-0.0773 c -85.992825,-0.0545 -122.284834,0.006 -122.975807,0.20549 -1.272423,0.36706 -2.483601,1.40096 -3.133487,2.67484 -0.512654,1.00488 -0.517892,2.1003 -0.451421,94.39842 l 0.06725,93.38173 0.818902,1.01674 c 0.450397,0.55921 1.283835,1.28289 1.852083,1.60818 l 1.033182,0.59144 122.389119,-0.0623 122.38912,-0.0623 z M -76.694857,362.78579 c -0.09701,-0.097 -0.17639,-6.61415 -0.17639,-14.48252 v -14.30613 l 24.008956,-24.01435 c 13.204928,-13.2079 24.128426,-24.01436 24.274444,-24.01436 0.146016,0 5.653717,5.38725 12.239334,11.97168 l 11.9738511,11.97168 38.5629839,-38.5623 c 21.20964,-21.20927 38.741614,-38.56231 38.959941,-38.56231 0.218326,0 14.416376,14.0198 31.551227,31.1551 l 31.15426,31.15511 v 33.93239 33.9324 H 29.667643 c -58.402363,0 -106.265488,-0.0794 -106.3625,-0.17639 z m 24.832067,-96.93813 c -4.387567,-0.6886 -8.847826,-2.40997 -12.340897,-4.76278 -2.330588,-1.5698 -5.784734,-4.98653 -7.392885,-7.3128 -1.823212,-2.63737 -3.570655,-6.41505 -4.410342,-9.53444 -0.625112,-2.32224 -0.695732,-3.04712 -0.690226,-7.08484 0.0055,-4.02098 0.08085,-4.77846 0.710803,-7.14375 0.840324,-3.15519 3.064491,-7.77943 4.908595,-10.20541 6.100373,-8.02522 16.178366,-12.45385 25.932982,-11.39587 6.935935,0.75227 12.83653,3.54302 17.600414,8.32431 9.738214,9.7738 11.300103,24.70466 3.789608,36.22677 -4.210706,6.4598 -10.633792,10.85458 -18.3238,12.53745 -2.265262,0.49572 -7.635582,0.68858 -9.784252,0.35136 z"
         id="path919"
         inkscape:connector-curvature="0" />
      <path
         style="fill:#ffffff;stroke-width:0.26458332"
         d="m -95.56629,401.20102 c -10.11662,-1.84174 -17.8012,-9.57509 -19.54238,-19.66642 -0.34873,-2.02113 -0.38859,-13.80505 -0.3282,-97.02138 l 0.0687,-94.72083 0.59673,-2.11667 c 2.45651,-8.71346 8.85235,-15.04308 17.57541,-17.39345 l 2.200775,-0.59298 122.898958,-0.0807 c 86.661287,-0.0569 123.636297,0.003 125.399637,0.20459 9.82438,1.12095 17.95611,8.18909 20.55051,17.86258 0.48159,1.7957 0.49673,4.77996 0.49673,98.02813 0,91.89604 -0.0212,96.25257 -0.4775,97.89583 -0.74631,2.68787 -2.91441,6.88864 -4.7027,9.11162 -2.98069,3.7052 -7.70027,6.76952 -12.54689,8.14642 l -2.11666,0.60133 -124.089585,0.0434 c -100.973919,0.0353 -124.442403,-0.0208 -125.983585,-0.30142 z M 151.57598,382.5526 c 1.23614,-0.2867 2.08659,-0.88459 3.18016,-2.23574 l 0.80907,-0.99962 0.0773,-93.04264 c 0.0552,-66.42957 -0.005,-93.32768 -0.21037,-94.0392 -0.3601,-1.24757 -1.70733,-2.80674 -2.83086,-3.27617 -0.7144,-0.2985 -21.03038,-0.35675 -123.167664,-0.35311 l -122.312144,0.004 -1.05051,0.59499 c -1.183521,0.67032 -2.122826,1.91443 -2.517124,3.33393 -0.40662,1.46386 -0.367199,184.61445 0.04008,186.23191 0.390802,1.55201 2.082601,3.31814 3.550152,3.70612 1.334855,0.3529 242.91411,0.4272 244.43192,0.0752 z M -76.553747,362.64468 c -0.238963,-0.23897 -0.3175,-3.78866 -0.3175,-14.35023 v -14.03272 l 24.008956,-24.01436 c 13.204928,-13.2079 24.129413,-24.01436 24.276637,-24.01436 0.147223,0 5.564955,5.29828 12.039407,11.77396 6.474452,6.47568 11.9506712,11.77396 12.1693811,11.77396 0.2187072,0 17.7511449,-17.35319 38.9609699,-38.56264 l 38.56332,-38.56264 31.353166,31.35232 31.35316,31.35233 v 33.64034 c 0,30.43151 -0.0399,33.65566 -0.41851,33.80094 -0.23019,0.0883 -47.950434,0.1606 -106.045002,0.1606 -81.801155,0 -105.698099,-0.0716 -105.943985,-0.3175 z m 22.70125,-97.28645 c -11.621161,-2.57012 -20.37267,-11.63656 -22.486964,-23.29619 -0.431405,-2.37906 -0.369218,-7.68998 0.11979,-10.23003 2.108068,-10.95001 10.17065,-19.60415 20.989804,-22.52984 2.299292,-0.62177 3.052479,-0.69572 7.198204,-0.70678 4.042939,-0.0108 4.932233,0.0669 7.011458,0.61247 5.418664,1.42177 9.407914,3.71441 13.375643,7.68702 3.487467,3.49176 5.535903,6.75136 6.998462,11.13638 5.221221,15.6542 -3.782127,32.47729 -19.763865,36.92952 -3.413752,0.95102 -10.052029,1.14729 -13.442532,0.39745 z"
         id="path921"
         inkscape:connector-curvature="0" />
      <path
         style="fill:#ffffff;stroke-width:0.26458332"
         d="m -95.436832,401.05605 c -7.616468,-1.28528 -14.514208,-6.59035 -17.697678,-13.61136 -0.42094,-0.92837 -1.03618,-2.56023 -1.36719,-3.62637 l -0.60184,-1.93843 -0.0722,-95.11771 c -0.0497,-65.47117 0.0144,-95.68404 0.20566,-96.93474 0.62521,-4.0879 2.65778,-8.45387 5.46593,-11.74084 2.826,-3.30786 6.95426,-5.937 11.614877,-7.39707 l 2.364941,-0.74089 123.957292,-0.0685 c 136.26666,-0.0752 126.24316,-0.19058 130.60437,1.50288 3.32589,1.29145 5.58318,2.80121 8.30188,5.55263 4.12279,4.17241 6.24647,8.55379 6.8729,14.1796 0.21238,1.90739 0.27283,28.78672 0.21658,96.30834 l -0.078,93.6625 -0.58336,2.04611 c -1.32648,4.65254 -3.32634,8.1842 -6.34235,11.2002 -3.49493,3.49494 -8.02299,5.85233 -12.9005,6.71624 -1.87174,0.33153 -247.997316,0.33877 -249.961252,0.007 z M 153.52855,381.91612 c 0.68303,-0.47334 1.34454,-1.26207 1.76332,-2.10247 l 0.67022,-1.34496 -0.003,-92.61836 c 0,-64.47794 -0.0868,-92.92551 -0.28218,-93.62927 -0.37534,-1.35162 -1.8765,-2.96313 -3.23889,-3.47698 -1.00436,-0.37881 -12.50945,-0.41109 -123.388513,-0.34619 l -122.279696,0.0716 -1.145021,0.80476 c -0.629762,0.44261 -1.411965,1.27605 -1.738225,1.85208 l -0.593207,1.04733 -0.0043,93.34231 c -0.0043,91.2351 0.007,93.36447 0.499065,94.32396 0.568981,1.10949 1.376712,1.91326 2.539291,2.52685 0.721265,0.38067 11.994671,0.41381 123.450749,0.3629 l 122.656987,-0.056 z M -76.430274,362.5212 c -0.09701,-0.097 -0.176389,-6.49687 -0.176389,-14.2219 v -14.04551 l 23.879191,-23.8781 c 13.133554,-13.13295 23.99851,-23.87809 24.144343,-23.87809 0.145835,0 5.56243,5.29828 12.036882,11.77395 6.474452,6.47568 11.9506712,11.77396 12.1693811,11.77396 0.2187072,0 17.7511449,-17.35319 38.9609699,-38.56264 l 38.56332,-38.56264 31.220876,31.22003 31.22087,31.22004 v 33.66864 33.66865 H 29.667643 c -58.256842,0 -106.000904,-0.0794 -106.097917,-0.17639 z m 25.255408,-96.95628 c -11.536659,-1.33839 -21.008369,-9.36166 -24.253124,-20.54426 -4.382976,-15.10534 4.560896,-31.05834 19.839705,-35.38768 11.143713,-3.15764 23.648411,1.10793 30.550615,10.42134 3.802483,5.13084 5.584343,10.62188 5.57753,17.18791 -0.0079,7.58326 -2.560786,14.02619 -7.719997,19.48333 -4.789471,5.06605 -10.836605,8.07914 -17.764998,8.8517 -2.823633,0.31485 -3.419586,0.31367 -6.229731,-0.0123 z"
         id="path923"
         inkscape:connector-curvature="0" />
    </g>
  </g>
</svg>
