<?xml version="1.0" encoding="UTF-8" standalone="no"?>
<svg
   xmlns:dc="http://purl.org/dc/elements/1.1/"
   xmlns:cc="http://creativecommons.org/ns#"
   xmlns:rdf="http://www.w3.org/1999/02/22-rdf-syntax-ns#"
   xmlns:svg="http://www.w3.org/2000/svg"
   xmlns="http://www.w3.org/2000/svg"
   xmlns:xlink="http://www.w3.org/1999/xlink"
   xmlns:sodipodi="http://sodipodi.sourceforge.net/DTD/sodipodi-0.dtd"
   xmlns:inkscape="http://www.inkscape.org/namespaces/inkscape"
   width="82"
   height="60"
   viewBox="0 0 82 60"
   version="1.1"
   id="svg100"
   sodipodi:docname="s_services.svg"
   inkscape:version="0.92.5 (2060ec1f9f, 2020-04-08)">
  <metadata
     id="metadata104">
    <rdf:RDF>
      <cc:Work
         rdf:about="">
        <dc:format>image/svg+xml</dc:format>
        <dc:type
           rdf:resource="http://purl.org/dc/dcmitype/StillImage" />
        <dc:title></dc:title>
      </cc:Work>
    </rdf:RDF>
  </metadata>
  <sodipodi:namedview
     pagecolor="#ffffff"
     bordercolor="#666666"
     borderopacity="1"
     objecttolerance="10"
     gridtolerance="10"
     guidetolerance="10"
     inkscape:pageopacity="0"
     inkscape:pageshadow="2"
     inkscape:window-width="1680"
     inkscape:window-height="1013"
     id="namedview102"
     showgrid="false"
     inkscape:zoom="3.9333333"
     inkscape:cx="2.3837219"
     inkscape:cy="52.881356"
     inkscape:window-x="1680"
     inkscape:window-y="0"
     inkscape:window-maximized="1"
     inkscape:current-layer="svg100" />
  <defs
     id="defs52">
    <linearGradient
       id="linearGradient-1"
       x1="0%"
       x2="100%"
       y1="45.918%"
       y2="54.082%">
      <stop
         offset="0%"
         stop-color="#00A09D"
         id="stop2" />
      <stop
         offset="100%"
         stop-color="#00E2FF"
         id="stop4" />
    </linearGradient>
    <linearGradient
       id="linearGradient-2"
       x1="13.472194"
       x2="18.371173"
       y1="49.461844"
       y2="50.150739"
       gradientTransform="matrix(1.6329932,0,0,0.61237244,15,12)"
       gradientUnits="userSpaceOnUse">
      <stop
         offset="0%"
         stop-color="#00A09D"
         id="stop7" />
      <stop
         offset="100%"
         stop-color="#00E2FF"
         id="stop9" />
    </linearGradient>
    <path
       id="path-3"
       d="M12 9v2H3V9h9zm37 0v2h-9V9h9z" />
    <filter
       id="filter-4"
       width="102.2%"
       height="200%"
       x="-1.1%"
       y="-25%"
       filterUnits="objectBoundingBox">
      <feOffset
         dy="1"
         in="SourceAlpha"
         result="shadowOffsetOuter1"
         id="feOffset13" />
      <feComposite
         in="shadowOffsetOuter1"
         in2="SourceAlpha"
         operator="out"
         result="shadowOffsetOuter1"
         id="feComposite15" />
      <feColorMatrix
         in="shadowOffsetOuter1"
         values="0 0 0 0 1   0 0 0 0 1   0 0 0 0 1  0 0 0 0.292012675 0"
         id="feColorMatrix17" />
    </filter>
    <path
       id="path-5"
       d="M8 22v1H3v-1h5zm4-2v1H3v-1h9zm-3-3v1H3v-1h6zm2-3v1H3v-1h8z" />
    <filter
       id="filter-6"
       width="111.1%"
       height="122.2%"
       x="-5.6%"
       y="-5.6%"
       filterUnits="objectBoundingBox">
      <feOffset
         dy="1"
         in="SourceAlpha"
         result="shadowOffsetOuter1"
         id="feOffset21" />
      <feComposite
         in="shadowOffsetOuter1"
         in2="SourceAlpha"
         operator="out"
         result="shadowOffsetOuter1"
         id="feComposite23" />
      <feColorMatrix
         in="shadowOffsetOuter1"
         values="0 0 0 0 1   0 0 0 0 1   0 0 0 0 1  0 0 0 0.0995137675 0"
         id="feColorMatrix25" />
    </filter>
    <path
       id="path-7"
       d="M27 20v1h-7v-1h7zm5-3v1H20v-1h12zm-4-3v1h-8v-1h8zm3-3v1H20v-1h11z" />
    <filter
       id="filter-8"
       width="108.3%"
       height="120%"
       x="-4.2%"
       y="-5%"
       filterUnits="objectBoundingBox">
      <feOffset
         dy="1"
         in="SourceAlpha"
         result="shadowOffsetOuter1"
         id="feOffset29" />
      <feComposite
         in="shadowOffsetOuter1"
         in2="SourceAlpha"
         operator="out"
         result="shadowOffsetOuter1"
         id="feComposite31" />
      <feColorMatrix
         in="shadowOffsetOuter1"
         values="0 0 0 0 1   0 0 0 0 1   0 0 0 0 1  0 0 0 0.0995137675 0"
         id="feColorMatrix33" />
    </filter>
    <path
       id="path-9"
       d="M49 22v1h-9v-1h9zm-5-2v1h-4v-1h4zm4-3v1h-8v-1h8zm-2-3v1h-6v-1h6z" />
    <filter
       id="filter-10"
       width="111.1%"
       height="122.2%"
       x="-5.6%"
       y="-5.6%"
       filterUnits="objectBoundingBox">
      <feOffset
         dy="1"
         in="SourceAlpha"
         result="shadowOffsetOuter1"
         id="feOffset37" />
      <feComposite
         in="shadowOffsetOuter1"
         in2="SourceAlpha"
         operator="out"
         result="shadowOffsetOuter1"
         id="feComposite39" />
      <feColorMatrix
         in="shadowOffsetOuter1"
         values="0 0 0 0 1   0 0 0 0 1   0 0 0 0 1  0 0 0 0.0995137675 0"
         id="feColorMatrix41" />
    </filter>
    <rect
       id="path-11"
       width="12"
       height="2"
       x="20"
       y="6" />
    <filter
       id="filter-12"
       width="108.3%"
       height="200%"
       x="-4.2%"
       y="-25%"
       filterUnits="objectBoundingBox">
      <feOffset
         dy="1"
         in="SourceAlpha"
         result="shadowOffsetOuter1"
         id="feOffset45" />
      <feComposite
         in="shadowOffsetOuter1"
         in2="SourceAlpha"
         operator="out"
         result="shadowOffsetOuter1"
         id="feComposite47" />
      <feColorMatrix
         in="shadowOffsetOuter1"
         values="0 0 0 0 1   0 0 0 0 1   0 0 0 0 1  0 0 0 0.292012675 0"
         id="feColorMatrix49" />
    </filter>
    <linearGradient
       inkscape:collect="always"
       xlink:href="#linearGradient-1"
       id="linearGradient1034"
       gradientUnits="userSpaceOnUse"
       gradientTransform="matrix(1.8708287,0,0,0.53452248,-19.696172,-19.460259)"
       x1="2.1380899"
       y1="54.101298"
       x2="5.8797473"
       y2="54.406767" />
    <linearGradient
       inkscape:collect="always"
       xlink:href="#linearGradient-1"
       id="linearGradient1050"
       gradientUnits="userSpaceOnUse"
       gradientTransform="matrix(1.8708287,0,0,0.53452248,-19.696172,-19.460259)"
       x1="2.1380899"
       y1="54.101298"
       x2="5.8797473"
       y2="54.406767" />
    <linearGradient
       inkscape:collect="always"
       xlink:href="#linearGradient-1"
       id="linearGradient1066"
       gradientUnits="userSpaceOnUse"
       gradientTransform="matrix(1.8708287,0,0,0.53452248,-19.696172,-19.460259)"
       x1="2.1380899"
       y1="54.101298"
       x2="5.8797473"
       y2="54.406767" />
  </defs>
  <rect
     style="fill:none;fill-rule:evenodd"
     width="82"
     height="60"
     class="bg"
     id="rect54"
     x="0"
     y="0" />
  <g
     id="g1032"
     transform="matrix(1.2510111,0,0,1.2510111,77.721302,33.577034)">
    <rect
       width="7"
       height="2"
       x="-15.696172"
       y="8.5397406"
       class="rectangle"
       id="rect1020"
       style="fill:url(#linearGradient1034);fill-rule:evenodd" />
    <g
       transform="translate(-19.696172,-18.201849)"
       class="combined_shape"
       id="g1026"
       style="fill:none;fill-rule:evenodd">
      <use
         xlink:href="#path-5"
         id="use1022"
         style="fill:#000000;filter:url(#filter-6)"
         x="0"
         y="0"
         width="100%"
         height="100%" />
      <use
         xlink:href="#path-5"
         id="use1024"
         style="fill:#ffffff;fill-opacity:0.34800002"
         x="0"
         y="0"
         width="100%"
         height="100%" />
    </g>
    <path
       id="path1028"
       d="m -18.558594,-17.289062 c -0.774661,0 -1.398437,0.623776 -1.398437,1.398437 v 28.601563 c 0,0.774661 0.623776,1.398437 1.398437,1.398437 h 12.4570315 c 0.774661,0 1.3984375,-0.623776 1.3984375,-1.398437 v -28.601563 c 0,-0.774661 -0.6237765,-1.398437 -1.3984375,-1.398437 z m -0.224609,4.302734 h 12.9999999 v 26 H -18.783203 Z"
       style="opacity:1;fill:#d8d8d8;fill-opacity:1;stroke:none;stroke-width:1;stroke-miterlimit:4;stroke-dasharray:none;stroke-dashoffset:0;stroke-opacity:0.29019608"
       inkscape:connector-curvature="0" />
    <rect
       y="-10.291208"
       x="-16.988541"
       height="4.6740956"
       width="9.3481913"
       id="rect1030"
       style="opacity:1;fill:#d8d8d8;fill-opacity:1;stroke:none;stroke-width:1;stroke-miterlimit:4;stroke-dasharray:none;stroke-dashoffset:0;stroke-opacity:0.29019608" />
  </g>
  <g
     transform="matrix(1.2510111,0,0,1.2510111,57.171298,30.459646)"
     id="g1048">
    <rect
       style="fill:url(#linearGradient1050);fill-rule:evenodd"
       id="rect1036"
       class="rectangle"
       y="8.5397406"
       x="-15.696172"
       height="2"
       width="7" />
    <g
       style="fill:none;fill-rule:evenodd"
       id="g1042"
       class="combined_shape"
       transform="translate(-19.696172,-18.201849)">
      <use
         height="100%"
         width="100%"
         y="0"
         x="0"
         style="fill:#000000;filter:url(#filter-6)"
         id="use1038"
         xlink:href="#path-5" />
      <use
         height="100%"
         width="100%"
         y="0"
         x="0"
         style="fill:#ffffff;fill-opacity:0.34800002"
         id="use1040"
         xlink:href="#path-5" />
    </g>
    <path
       inkscape:connector-curvature="0"
       style="opacity:1;fill:#d8d8d8;fill-opacity:1;stroke:none;stroke-width:1;stroke-miterlimit:4;stroke-dasharray:none;stroke-dashoffset:0;stroke-opacity:0.29019608"
       d="m -18.558594,-17.289062 c -0.774661,0 -1.398437,0.623776 -1.398437,1.398437 v 28.601563 c 0,0.774661 0.623776,1.398437 1.398437,1.398437 h 12.4570315 c 0.774661,0 1.3984375,-0.623776 1.3984375,-1.398437 v -28.601563 c 0,-0.774661 -0.6237765,-1.398437 -1.3984375,-1.398437 z m -0.224609,4.302734 h 12.9999999 v 26 H -18.783203 Z"
       id="path1044" />
    <rect
       style="opacity:1;fill:#d8d8d8;fill-opacity:1;stroke:none;stroke-width:1;stroke-miterlimit:4;stroke-dasharray:none;stroke-dashoffset:0;stroke-opacity:0.29019608"
       id="rect1046"
       width="9.3481913"
       height="4.6740956"
       x="-16.988541"
       y="-10.291208" />
  </g>
  <g
     transform="matrix(1.2510111,0,0,1.2510111,35.721302,33.577034)"
     id="g1064">
    <rect
       style="fill:url(#linearGradient1066);fill-rule:evenodd"
       id="rect1052"
       class="rectangle"
       y="8.5397406"
       x="-15.696172"
       height="2"
       width="7" />
    <g
       style="fill:none;fill-rule:evenodd"
       id="g1058"
       class="combined_shape"
       transform="translate(-19.696172,-18.201849)">
      <use
         height="100%"
         width="100%"
         y="0"
         x="0"
         style="fill:#000000;filter:url(#filter-6)"
         id="use1054"
         xlink:href="#path-5" />
      <use
         height="100%"
         width="100%"
         y="0"
         x="0"
         style="fill:#ffffff;fill-opacity:0.34800002"
         id="use1056"
         xlink:href="#path-5" />
    </g>
    <path
       inkscape:connector-curvature="0"
       style="opacity:1;fill:#d8d8d8;fill-opacity:1;stroke:none;stroke-width:1;stroke-miterlimit:4;stroke-dasharray:none;stroke-dashoffset:0;stroke-opacity:0.29019608"
       d="m -18.558594,-17.289062 c -0.774661,0 -1.398437,0.623776 -1.398437,1.398437 v 28.601563 c 0,0.774661 0.623776,1.398437 1.398437,1.398437 h 12.4570315 c 0.774661,0 1.3984375,-0.623776 1.3984375,-1.398437 v -28.601563 c 0,-0.774661 -0.6237765,-1.398437 -1.3984375,-1.398437 z m -0.224609,4.302734 h 12.9999999 v 26 H -18.783203 Z"
       id="path1060" />
    <rect
       style="opacity:1;fill:#d8d8d8;fill-opacity:1;stroke:none;stroke-width:1;stroke-miterlimit:4;stroke-dasharray:none;stroke-dashoffset:0;stroke-opacity:0.29019608"
       id="rect1062"
       width="9.3481913"
       height="4.6740956"
       x="-16.988541"
       y="-10.291208" />
  </g>
</svg>
